<?xml version="1.0" encoding="utf-8"?>
<!-- Generator: Adobe Illustrator 17.1.0, SVG Export Plug-In . SVG Version: 6.00 Build 0)  -->
<!DOCTYPE svg PUBLIC "-//W3C//DTD SVG 1.1//EN" "http://www.w3.org/Graphics/SVG/1.1/DTD/svg11.dtd">
<svg version="1.1" id="Layer_1" xmlns="http://www.w3.org/2000/svg" xmlns:xlink="http://www.w3.org/1999/xlink" x="0px" y="0px"
	 viewBox="0 0 33.98 8.2" style="enable-background:new 0 0 33.98 8.2;" xml:space="preserve">
<g>
	<path style="fill:#FFFFFF;" d="M1.17,8.2H0V2.34h0.59V1.76h0.59V1.17h0.59V0.59h0.59V0h1.17v0.59H4.1v0.59h0.59v0.59h0.59v0.59
		h0.59V8.2H4.69V5.86H1.17V8.2z M1.17,4.69h3.52V2.93H4.1V2.34H3.52V1.76H2.34v0.59H1.76v0.59H1.17V4.69z"/>
	<path style="fill:#FFFFFF;" d="M7.03,8.2V0h4.69v0.59h0.59v0.59h0.59v2.34H12.3v1.17h0.59v2.34H12.3v0.59h-0.59V8.2H7.03z
		 M8.2,3.52h2.93V2.93h0.59V1.76h-0.59V1.17H8.2V3.52z M8.2,7.03h2.93V6.45h0.59V5.27h-0.59V4.69H8.2V7.03z"/>
	<path style="fill:#FFFFFF;" d="M15.23,0.59V0h3.52v0.59h0.59v0.59h0.59v5.86h-0.59v0.59h-0.59V8.2h-3.52V7.62h-0.59V7.03h-0.59
		V1.17h0.59V0.59H15.23z M18.16,1.17h-2.34v0.59h-0.59v4.69h0.59v0.59h2.34V6.45h0.59V1.76h-0.59V1.17z"/>
	<path style="fill:#FFFFFF;" d="M21.68,7.03h-0.59V0h1.17v6.45h0.59v0.59h2.34V6.45h0.59V0h1.17v7.03h-0.59v0.59h-0.59V8.2h-3.52
		V7.62h-0.59V7.03z"/>
	<path style="fill:#FFFFFF;" d="M30.47,1.17h-2.34V0h5.86v1.17h-2.34V8.2h-1.17V1.17z"/>
</g>
</svg>
