<?xml version="1.0" encoding="utf-8"?>
<!DOCTYPE svg PUBLIC "-//W3C//DTD SVG 1.1//EN" "http://www.w3.org/Graphics/SVG/1.1/DTD/svg11.dtd">
<svg version="1.1" id="Layer_1" xmlns="http://www.w3.org/2000/svg" xmlns:xlink="http://www.w3.org/1999/xlink" x="0px" y="0px"
	 viewBox="0 0 55.08 8.2" style="enable-background:new 0 0 55.08 8.2;" xml:space="preserve">
<g>
	<path style="fill:#FFFFFF;" d="M5.86,0v1.17H1.17v2.34h3.52v1.17H1.17v2.34h4.69V8.2H0V0H5.86z"/>
	<path style="fill:#FFFFFF;" d="M8.2,4.69V8.2H7.03V0h4.69v0.59h0.59v0.59h0.59v2.34H12.3V4.1h-0.59v0.59H8.2z M8.2,1.17v2.34h2.93
		V2.93h0.59V1.76h-0.59V1.17H8.2z"/>
	<path style="fill:#FFFFFF;" d="M15.23,8.2V7.03h1.17V1.17h-1.17V0h3.52v1.17h-1.17v5.86h1.17V8.2H15.23z"/>
	<path style="fill:#FFFFFF;" d="M26.37,1.17h0.59v1.17h-1.17V1.76H25.2V1.17h-2.34v0.59h-0.59v1.17h0.59v0.59h2.93V4.1h0.59v0.59
		h0.59v2.34h-0.59v0.59h-0.59V8.2h-3.52V7.62h-0.59V7.03h-0.59V5.86h1.17v0.59h0.59v0.59h2.34V6.45h0.59V5.27H25.2V4.69h-2.93V4.1
		h-0.59V3.52h-0.59V1.17h0.59V0.59h0.59V0h3.52v0.59h0.59V1.17z"/>
	<path style="fill:#FFFFFF;" d="M29.3,0.59V0h3.52v0.59h0.59v0.59h0.59v5.86H33.4v0.59h-0.59V8.2H29.3V7.62h-0.59V7.03h-0.59V1.17
		h0.59V0.59H29.3z M32.23,1.17h-2.34v0.59H29.3v4.69h0.59v0.59h2.34V6.45h0.59V1.76h-0.59V1.17z"/>
	<path style="fill:#FFFFFF;" d="M35.16,8.2V0h4.69v0.59h0.59v0.59h0.59v5.86h-0.59v0.59h-0.59V8.2H35.16z M36.33,1.17v5.86h2.93
		V6.45h0.59V1.76h-0.59V1.17H36.33z"/>
	<path style="fill:#FFFFFF;" d="M48.05,0v1.17h-4.69v2.34h3.52v1.17h-3.52v2.34h4.69V8.2h-5.86V0H48.05z"/>
	<path style="fill:#FFFFFF;" d="M54.49,1.17h0.59v1.17h-1.17V1.76h-0.59V1.17h-2.34v0.59h-0.59v1.17h0.59v0.59h2.93V4.1h0.59v0.59
		h0.59v2.34h-0.59v0.59h-0.59V8.2h-3.52V7.62h-0.59V7.03h-0.59V5.86h1.17v0.59h0.59v0.59h2.34V6.45h0.59V5.27h-0.59V4.69h-2.93V4.1
		h-0.59V3.52h-0.59V1.17h0.59V0.59h0.59V0h3.52v0.59h0.59V1.17z"/>
</g>
</svg>
