<?xml version="1.0" encoding="utf-8"?>
<svg version="1.1" id="Layer_1" xmlns="http://www.w3.org/2000/svg" xmlns:xlink="http://www.w3.org/1999/xlink" x="0px" y="0px"
	 viewBox="0 0 97.3 8.2" style="enable-background:new 0 0 97.3 8.2;" xml:space="preserve">
<style type="text/css">
	.st0{fill:#FFFFFF;}
</style>
<g id="XMLID_15_">
	<path id="XMLID_16_" class="st0" d="M5.9,0v1.2H1.2v2.3h3.5v1.2H1.2V7h4.7v1.2H0V0H5.9z"/>
	<path id="XMLID_18_" class="st0" d="M8.2,3.5v4.7H7V0h1.2v1.8h0.6v0.6h0.6v0.6H10v0.6h0.6v0.6h0.6v0.6h0.6V0h1.2v8.2h-1.2V6.4h-0.6
		V5.9h-0.6V5.3H10V4.7H9.4V4.1H8.8V3.5H8.2z"/>
	<path id="XMLID_20_" class="st0" d="M16.4,1.2h-2.3V0h5.9v1.2h-2.3v7h-1.2V1.2z"/>
	<path id="XMLID_22_" class="st0" d="M27,0v1.2h-4.7v2.3h3.5v1.2h-3.5V7H27v1.2h-5.9V0H27z"/>
	<path id="XMLID_24_" class="st0" d="M29.9,4.7h-0.6v3.5h-1.2V0h4.7v0.6h0.6v0.6H34v2.3h-0.6v0.6h-0.6v0.6h-1.2v0.6h0.6v0.6h0.6v0.6
		h0.6V7H34v1.2h-1.2V7.6h-0.6V7h-0.6V6.4h-0.6V5.9h-0.6V5.3h-0.6V4.7z M29.3,1.2v2.3h2.9V2.9h0.6V1.8h-0.6V1.2H29.3z"/>
	<path id="XMLID_27_" class="st0" d="M44.5,1.2h-2.3V0H48v1.2h-2.3v7h-1.2V1.2z"/>
	<path id="XMLID_29_" class="st0" d="M50.4,4.7v3.5h-1.2V0h1.2v3.5h3.5V0h1.2v8.2h-1.2V4.7H50.4z"/>
	<path id="XMLID_31_" class="st0" d="M62.1,0v1.2h-4.7v2.3h3.5v1.2h-3.5V7h4.7v1.2h-5.9V0H62.1z"/>
	<path id="XMLID_33_" class="st0" d="M72.7,1.2h-2.3V0h5.9v1.2h-2.3v7h-1.2V1.2z"/>
	<path id="XMLID_35_" class="st0" d="M78.5,8.2h-1.2V2.3h0.6V1.8h0.6V1.2h0.6V0.6h0.6V0h1.2v0.6h0.6v0.6H82v0.6h0.6v0.6h0.6v5.9H82
		V5.9h-3.5V8.2z M78.5,4.7H82V2.9h-0.6V2.3h-0.6V1.8h-1.2v0.6h-0.6v0.6h-0.6V4.7z"/>
	<path id="XMLID_38_" class="st0" d="M85.5,4.7v3.5h-1.2V0h4.7v0.6h0.6v0.6h0.6v2.3h-0.6v0.6h-0.6v0.6H85.5z M85.5,1.2v2.3h2.9V2.9
		h0.6V1.8h-0.6V1.2H85.5z"/>
	<path id="XMLID_41_" class="st0" d="M97.3,0v1.2h-4.7v2.3h3.5v1.2h-3.5V7h4.7v1.2h-5.9V0H97.3z"/>
</g>
</svg>
