<?xml version="1.0" encoding="utf-8"?>
<!DOCTYPE svg PUBLIC "-//W3C//DTD SVG 1.1//EN" "http://www.w3.org/Graphics/SVG/1.1/DTD/svg11.dtd">
<svg version="1.1" id="Layer_1" xmlns="http://www.w3.org/2000/svg" xmlns:xlink="http://www.w3.org/1999/xlink" x="0px" y="0px"
	 viewBox="0 0 55.08 8.2" style="enable-background:new 0 0 55.08 8.2;" xml:space="preserve">
<g>
	<path style="fill:#FFFFFF;" d="M5.86,0v1.17H1.17v2.34h3.52v1.17H1.17V8.2H0V0H5.86z"/>
	<path style="fill:#FFFFFF;" d="M8.2,8.2H7.03V2.34h0.59V1.76H8.2V1.17h0.59V0.59h0.59V0h1.17v0.59h0.59v0.59h0.59v0.59h0.59v0.59
		h0.59V8.2h-1.17V5.86H8.2V8.2z M8.2,4.69h3.52V2.93h-0.59V2.34h-0.59V1.76H9.38v0.59H8.79v0.59H8.2V4.69z"/>
	<path style="fill:#FFFFFF;" d="M15.82,7.03h2.34V6.45h0.59V5.86h1.17v1.17h-0.59v0.59h-0.59V8.2h-3.52V7.62h-0.59V7.03h-0.59V1.17
		h0.59V0.59h0.59V0h3.52v0.59h0.59v0.59h0.59v1.17h-1.17V1.76h-0.59V1.17h-2.34v0.59h-0.59v4.69h0.59V7.03z"/>
	<path style="fill:#FFFFFF;" d="M26.95,0v1.17h-4.69v2.34h3.52v1.17h-3.52v2.34h4.69V8.2h-5.86V0H26.95z"/>
	<path style="fill:#FFFFFF;" d="M28.13,8.2V0h4.69v0.59h0.59v0.59h0.59v2.34H33.4v1.17h0.59v2.34H33.4v0.59h-0.59V8.2H28.13z
		 M29.3,3.52h2.93V2.93h0.59V1.76h-0.59V1.17H29.3V3.52z M29.3,7.03h2.93V6.45h0.59V5.27h-0.59V4.69H29.3V7.03z"/>
	<path style="fill:#FFFFFF;" d="M36.33,0.59V0h3.52v0.59h0.59v0.59h0.59v5.86h-0.59v0.59h-0.59V8.2h-3.52V7.62h-0.59V7.03h-0.59
		V1.17h0.59V0.59H36.33z M39.26,1.17h-2.34v0.59h-0.59v4.69h0.59v0.59h2.34V6.45h0.59V1.76h-0.59V1.17z"/>
	<path style="fill:#FFFFFF;" d="M43.36,0.59V0h3.52v0.59h0.59v0.59h0.59v5.86h-0.59v0.59h-0.59V8.2h-3.52V7.62h-0.59V7.03h-0.59
		V1.17h0.59V0.59H43.36z M46.29,1.17h-2.34v0.59h-0.59v4.69h0.59v0.59h2.34V6.45h0.59V1.76h-0.59V1.17z"/>
	<path style="fill:#FFFFFF;" d="M50.39,4.69V8.2h-1.17V0h1.17v3.52h0.59V2.93h0.59V2.34h0.59V1.76h0.59V1.17h0.59V0.59h0.59V0h1.17
		v1.17h-0.59v0.59h-0.59v0.59h-0.59v0.59h-0.59v0.59h-0.59v1.17h0.59v0.59h0.59v0.59h0.59v0.59h0.59v0.59h0.59V8.2h-1.17V7.62h-0.59
		V7.03h-0.59V6.45h-0.59V5.86h-0.59V5.27h-0.59V4.69H50.39z"/>
</g>
</svg>
