<?xml version="1.0" encoding="utf-8"?>
<!DOCTYPE svg PUBLIC "-//W3C//DTD SVG 1.1//EN" "http://www.w3.org/Graphics/SVG/1.1/DTD/svg11.dtd">
<svg version="1.1" id="Layer_1" xmlns="http://www.w3.org/2000/svg" xmlns:xlink="http://www.w3.org/1999/xlink" x="0px" y="0px"
	 viewBox="0 0 33.4 8.2" style="enable-background:new 0 0 33.4 8.2;" xml:space="preserve">
<g>
	<path style="fill:#FFFFFF;" d="M5.86,0v1.17H1.17v2.34h3.52v1.17H1.17V8.2H0V0H5.86z"/>
	<path style="fill:#FFFFFF;" d="M12.89,0v1.17H8.2v2.34h3.52v1.17H8.2V8.2H7.03V0H12.89z"/>
	<path style="fill:#FFFFFF;" d="M21.68,7.62V0.59h1.76v0.59h0.59v0.59h0.59v0.59h0.59v0.59h0.59v0.59h0.59v1.17h-0.59v0.59H25.2
		v0.59h-0.59v0.59h-0.59v0.59h-0.59v0.59H21.68z"/>
	<path style="fill:#FFFFFF;" d="M28.71,7.62V0.59h1.76v0.59h0.59v0.59h0.59v0.59h0.59v0.59h0.59v0.59h0.59v1.17h-0.59v0.59h-0.59
		v0.59h-0.59v0.59h-0.59v0.59h-0.59v0.59H28.71z"/>
</g>
</svg>
