<?xml version="1.0" encoding="utf-8"?>
<!DOCTYPE svg PUBLIC "-//W3C//DTD SVG 1.1//EN" "http://www.w3.org/Graphics/SVG/1.1/DTD/svg11.dtd">
<svg version="1.1" id="Layer_1" xmlns="http://www.w3.org/2000/svg" xmlns:xlink="http://www.w3.org/1999/xlink" x="0px" y="0px"
	 viewBox="0 0 60.9 8.2" enable-background="new 0 0 60.9 8.2" xml:space="preserve">
<g>
	<path fill="#FFFFFF" d="M0,8.2V7h1.2V1.2H0V0h3.5v1.2H2.3V7h1.2v1.2H0z"/>
	<path fill="#FFFFFF" d="M7,3.5v4.7H5.9V0H7v1.8h0.6v0.6h0.6v0.6h0.6v0.6h0.6v0.6H10v0.6h0.6V0h1.2v8.2h-1.2V6.4H10V5.9H9.4V5.3H8.8
		V4.7H8.2V4.1H7.6V3.5H7z"/>
	<path fill="#FFFFFF" d="M18.2,1.2h0.6v1.2h-1.2V1.8H17V1.2h-2.3v0.6h-0.6v1.2h0.6v0.6h2.9v0.6h0.6v0.6h0.6V7h-0.6v0.6h-0.6v0.6
		h-3.5V7.6h-0.6V7h-0.6V5.9h1.2v0.6h0.6V7H17V6.4h0.6V5.3H17V4.7h-2.9V4.1h-0.6V3.5h-0.6V1.2h0.6V0.6h0.6V0h3.5v0.6h0.6V1.2z"/>
	<path fill="#FFFFFF" d="M22.3,1.2h-2.3V0h5.9v1.2h-2.3v7h-1.2V1.2z"/>
	<path fill="#FFFFFF" d="M28.1,8.2H27V2.3h0.6V1.8h0.6V1.2h0.6V0.6h0.6V0h1.2v0.6h0.6v0.6h0.6v0.6h0.6v0.6h0.6v5.9h-1.2V5.9h-3.5
		V8.2z M28.1,4.7h3.5V2.9h-0.6V2.3h-0.6V1.8h-1.2v0.6h-0.6v0.6h-0.6V4.7z"/>
	<path fill="#FFFFFF" d="M39.3,1.2h0.6v1.2h-1.2V1.8h-0.6V1.2h-2.3v0.6h-0.6v4.7h0.6V7h2.3V6.4h0.6V4.7h-1.8V3.5h2.9V7h-0.6v0.6
		h-0.6v0.6h-3.5V7.6h-0.6V7H34V1.2h0.6V0.6h0.6V0h3.5v0.6h0.6V1.2z"/>
	<path fill="#FFFFFF" d="M42.8,4.7h-0.6v3.5H41V0h4.7v0.6h0.6v0.6h0.6v2.3h-0.6v0.6h-0.6v0.6h-1.2v0.6h0.6v0.6h0.6v0.6h0.6V7h0.6
		v1.2h-1.2V7.6h-0.6V7h-0.6V6.4h-0.6V5.9h-0.6V5.3h-0.6V4.7z M42.2,1.2v2.3h2.9V2.9h0.6V1.8h-0.6V1.2H42.2z"/>
	<path fill="#FFFFFF" d="M49.2,8.2H48V2.3h0.6V1.8h0.6V1.2h0.6V0.6h0.6V0h1.2v0.6h0.6v0.6h0.6v0.6h0.6v0.6h0.6v5.9h-1.2V5.9h-3.5
		V8.2z M49.2,4.7h3.5V2.9h-0.6V2.3h-0.6V1.8h-1.2v0.6h-0.6v0.6h-0.6V4.7z"/>
	<path fill="#FFFFFF" d="M56.3,8.2h-1.2V0h1.2v1.2h0.6v0.6h0.6v0.6h1.2V1.8h0.6V1.2h0.6V0h1.2v8.2h-1.2V2.9h-0.6v0.6h-0.6v1.2h-1.2
		V3.5h-0.6V2.9h-0.6V8.2z"/>
</g>
</svg>
