<?xml version="1.0" encoding="utf-8"?>
<!DOCTYPE svg PUBLIC "-//W3C//DTD SVG 1.1//EN" "http://www.w3.org/Graphics/SVG/1.1/DTD/svg11.dtd">
<svg version="1.1" id="Layer_1" xmlns="http://www.w3.org/2000/svg" xmlns:xlink="http://www.w3.org/1999/xlink" x="0px" y="0px"
	 viewBox="0 0 39.84 8.2" style="enable-background:new 0 0 39.84 8.2;" xml:space="preserve">
<g>
	<path style="fill:#FFFFFF;" d="M4.69,3.52v1.17H0V3.52H4.69z"/>
	<path style="fill:#FFFFFF;" d="M7.62,8.2H6.45V0h1.17v1.17H8.2v0.59h0.59v0.59h1.17V1.76h0.59V1.17h0.59V0h1.17v8.2h-1.17V2.93
		h-0.59v0.59H9.96v1.17H8.79V3.52H8.2V2.93H7.62V8.2z"/>
	<path style="fill:#FFFFFF;" d="M19.34,0v1.17h-4.69v2.34h3.52v1.17h-3.52v2.34h4.69V8.2h-5.86V0H19.34z"/>
	<path style="fill:#FFFFFF;" d="M21.68,3.52V8.2h-1.17V0h1.17v1.76h0.59v0.59h0.59v0.59h0.59v0.59h0.59V4.1h0.59v0.59h0.59V0h1.17
		v8.2H25.2V6.45h-0.59V5.86h-0.59V5.27h-0.59V4.69h-0.59V4.1h-0.59V3.52H21.68z"/>
	<path style="fill:#FFFFFF;" d="M28.13,7.03h-0.59V0h1.17v6.45h0.59v0.59h2.34V6.45h0.59V0h1.17v7.03h-0.59v0.59h-0.59V8.2h-3.52
		V7.62h-0.59V7.03z"/>
	<path style="fill:#FFFFFF;" d="M39.84,3.52v1.17h-4.69V3.52H39.84z"/>
</g>
</svg>
