<?xml version="1.0" encoding="utf-8"?>
<!DOCTYPE svg PUBLIC "-//W3C//DTD SVG 1.1//EN" "http://www.w3.org/Graphics/SVG/1.1/DTD/svg11.dtd">
<svg version="1.1" id="Layer_1" xmlns="http://www.w3.org/2000/svg" xmlns:xlink="http://www.w3.org/1999/xlink" x="0px" y="0px"
	 viewBox="0 0 76.2 8.2" enable-background="new 0 0 76.2 8.2" xml:space="preserve">
<g>
	<path fill="#FFFFFF" d="M5.3,1.2h0.6v1.2H4.7V1.8H4.1V1.2H1.8v0.6H1.2v1.2h0.6v0.6h2.9v0.6h0.6v0.6h0.6V7H5.3v0.6H4.7v0.6H1.2V7.6
		H0.6V7H0V5.9h1.2v0.6h0.6V7h2.3V6.4h0.6V5.3H4.1V4.7H1.2V4.1H0.6V3.5H0V1.2h0.6V0.6h0.6V0h3.5v0.6h0.6V1.2z"/>
	<path fill="#FFFFFF" d="M12.9,0v1.2H8.2v2.3h3.5v1.2H8.2V7h4.7v1.2H7V0H12.9z"/>
	<path fill="#FFFFFF" d="M14.1,8.2V0h1.2v7h4.7v1.2H14.1z"/>
	<path fill="#FFFFFF" d="M27,0v1.2h-4.7v2.3h3.5v1.2h-3.5V7H27v1.2h-5.9V0H27z"/>
	<path fill="#FFFFFF" d="M29.9,7h2.3V6.4h0.6V5.9H34V7h-0.6v0.6h-0.6v0.6h-3.5V7.6h-0.6V7h-0.6V1.2h0.6V0.6h0.6V0h3.5v0.6h0.6v0.6
		H34v1.2h-1.2V1.8h-0.6V1.2h-2.3v0.6h-0.6v4.7h0.6V7z"/>
	<path fill="#FFFFFF" d="M37.5,1.2h-2.3V0H41v1.2h-2.3v7h-1.2V1.2z"/>
	<path fill="#FFFFFF" d="M51.6,1.2h-2.3V0h5.9v1.2h-2.3v7h-1.2V1.2z"/>
	<path fill="#FFFFFF" d="M57.4,8.2h-1.2V2.3h0.6V1.8h0.6V1.2H58V0.6h0.6V0h1.2v0.6h0.6v0.6h0.6v0.6h0.6v0.6h0.6v5.9h-1.2V5.9h-3.5
		V8.2z M57.4,4.7h3.5V2.9h-0.6V2.3h-0.6V1.8h-1.2v0.6H58v0.6h-0.6V4.7z"/>
	<path fill="#FFFFFF" d="M64.5,4.7v3.5h-1.2V0H68v0.6h0.6v0.6h0.6v2.3h-0.6v0.6H68v0.6H64.5z M64.5,1.2v2.3h2.9V2.9H68V1.8h-0.6V1.2
		H64.5z"/>
	<path fill="#FFFFFF" d="M76.2,0v1.2h-4.7v2.3H75v1.2h-3.5V7h4.7v1.2h-5.9V0H76.2z"/>
</g>
</svg>
