<?xml version="1.0" encoding="utf-8"?>
<!DOCTYPE svg PUBLIC "-//W3C//DTD SVG 1.1//EN" "http://www.w3.org/Graphics/SVG/1.1/DTD/svg11.dtd">
<svg version="1.1" id="Layer_1" xmlns="http://www.w3.org/2000/svg" xmlns:xlink="http://www.w3.org/1999/xlink" x="0px" y="0px"
	 viewBox="0 0 48.05 8.2" style="enable-background:new 0 0 48.05 8.2;" xml:space="preserve">
<g>
	<path style="fill:#FFFFFF;" d="M1.17,3.52V8.2H0V0h1.17v1.76h0.59v0.59h0.59v0.59h0.59v0.59h0.59V4.1H4.1v0.59h0.59V0h1.17v8.2
		H4.69V6.45H4.1V5.86H3.52V5.27H2.93V4.69H2.34V4.1H1.76V3.52H1.17z"/>
	<path style="fill:#FFFFFF;" d="M8.2,0.59V0h3.52v0.59h0.59v0.59h0.59v5.86H12.3v0.59h-0.59V8.2H8.2V7.62H7.62V7.03H7.03V1.17h0.59
		V0.59H8.2z M11.13,1.17H8.79v0.59H8.2v4.69h0.59v0.59h2.34V6.45h0.59V1.76h-0.59V1.17z"/>
	<path style="fill:#FFFFFF;" d="M23.44,1.17h-2.34V0h5.86v1.17h-2.34V8.2h-1.17V1.17z"/>
	<path style="fill:#FFFFFF;" d="M29.3,8.2h-1.17V2.34h0.59V1.76h0.59V1.17h0.59V0.59h0.59V0h1.17v0.59h0.59v0.59h0.59v0.59h0.59
		v0.59h0.59V8.2h-1.17V5.86H29.3V8.2z M29.3,4.69h3.52V2.93h-0.59V2.34h-0.59V1.76h-1.17v0.59h-0.59v0.59H29.3V4.69z"/>
	<path style="fill:#FFFFFF;" d="M36.33,4.69V8.2h-1.17V0h4.69v0.59h0.59v0.59h0.59v2.34h-0.59V4.1h-0.59v0.59H36.33z M36.33,1.17
		v2.34h2.93V2.93h0.59V1.76h-0.59V1.17H36.33z"/>
	<path style="fill:#FFFFFF;" d="M48.05,0v1.17h-4.69v2.34h3.52v1.17h-3.52v2.34h4.69V8.2h-5.86V0H48.05z"/>
</g>
</svg>
