<?xml version="1.0" encoding="utf-8"?>
<!DOCTYPE svg PUBLIC "-//W3C//DTD SVG 1.1//EN" "http://www.w3.org/Graphics/SVG/1.1/DTD/svg11.dtd">
<svg version="1.1" id="Layer_1" xmlns="http://www.w3.org/2000/svg" xmlns:xlink="http://www.w3.org/1999/xlink" x="0px" y="0px"
	 viewBox="49.6 206.2 40.4 8.2" enable-background="new 49.6 206.2 40.4 8.2" xml:space="preserve">
<g>
	<path fill="#FFFFFF" d="M50.8,210.9v3.5h-1.2v-8.2h4.7v0.6h0.6v0.6h0.6v2.3h-0.6v0.6h-0.6v0.6H50.8z M50.8,207.4v2.3h2.9v-0.6h0.6
		V208h-0.6v-0.6H50.8z"/>
	<path fill="#FFFFFF" d="M56.6,214.4v-8.2h1.2v7h4.7v1.2H56.6z"/>
	<path fill="#FFFFFF" d="M64.8,214.4h-1.2v-5.9h0.6V208h0.6v-0.6h0.6v-0.6H66v-0.6h1.2v0.6h0.6v0.6h0.6v0.6h0.6v0.6h0.6v5.9h-1.2
		v-2.3h-3.5V214.4z M64.8,210.9h3.5v-1.8h-0.6v-0.6h-0.6V208H66v0.6h-0.6v0.6h-0.6V210.9z"/>
	<path fill="#FFFFFF" d="M74.2,214.4H73v-2.9h-0.6v-0.6h-0.6v-0.6h-0.6v-0.6h-0.6v-3.5h1.2v2.9h0.6v0.6H73v0.6h1.2v-0.6h0.6v-0.6
		h0.6v-2.9h1.2v3.5H76v0.6h-0.6v0.6h-0.6v0.6h-0.6V214.4z"/>
	<path fill="#FFFFFF" d="M85.3,213.8v-7h1.8v0.6h0.6v0.6h0.6v0.6h0.6v0.6h0.6v0.6H90v1.2h-0.6v0.6h-0.6v0.6h-0.6v0.6h-0.6v0.6h-0.6
		v0.6H85.3z"/>
</g>
</svg>
