<?xml version="1.0" encoding="utf-8"?>
<!DOCTYPE svg PUBLIC "-//W3C//DTD SVG 1.1//EN" "http://www.w3.org/Graphics/SVG/1.1/DTD/svg11.dtd">
<svg version="1.1" id="Layer_1" xmlns="http://www.w3.org/2000/svg" xmlns:xlink="http://www.w3.org/1999/xlink" x="0px" y="0px"
	 viewBox="0 0 40.43 8.2" style="enable-background:new 0 0 40.43 8.2;" xml:space="preserve">
<g>
	<path style="fill:#FFFFFF;" d="M2.93,7.62V7.03H2.34V6.45H1.76V5.86H1.17V5.27H0.59V4.69H0V3.52h0.59V2.93h0.59V2.34h0.59V1.76
		h0.59V1.17h0.59V0.59h1.76v7.03H2.93z"/>
	<path style="fill:#FFFFFF;" d="M9.96,7.62V7.03H9.38V6.45H8.79V5.86H8.2V5.27H7.62V4.69H7.03V3.52h0.59V2.93H8.2V2.34h0.59V1.76
		h0.59V1.17h0.59V0.59h1.76v7.03H9.96z"/>
	<path style="fill:#FFFFFF;" d="M22.27,4.69h-0.59V8.2h-1.17V0h4.69v0.59h0.59v0.59h0.59v2.34h-0.59V4.1H25.2v0.59h-1.17v0.59h0.59
		v0.59h0.59v0.59h0.59v0.59h0.59V8.2H25.2V7.62h-0.59V7.03h-0.59V6.45h-0.59V5.86h-0.59V5.27h-0.59V4.69z M21.68,1.17v2.34h2.93
		V2.93h0.59V1.76h-0.59V1.17H21.68z"/>
	<path style="fill:#FFFFFF;" d="M33.4,0v1.17h-4.69v2.34h3.52v1.17h-3.52v2.34h4.69V8.2h-5.86V0H33.4z"/>
	<path style="fill:#FFFFFF;" d="M34.57,0h1.17v6.45h1.17V3.52h1.17v2.93h1.17V0h1.17v7.03h-0.59v0.59h-0.59V8.2h-1.17V7.62h-1.17
		V8.2h-1.17V7.62h-0.59V7.03h-0.59V0z"/>
</g>
</svg>
