<?xml version="1.0" encoding="utf-8"?>
<!-- Generator: Adobe Illustrator 17.1.0, SVG Export Plug-In . SVG Version: 6.00 Build 0)  -->
<!DOCTYPE svg PUBLIC "-//W3C//DTD SVG 1.1//EN" "http://www.w3.org/Graphics/SVG/1.1/DTD/svg11.dtd">
<svg version="1.1" id="Layer_1" xmlns="http://www.w3.org/2000/svg" xmlns:xlink="http://www.w3.org/1999/xlink" x="0px" y="0px"
	 viewBox="0 0 124.66 23.3" style="enable-background:new 0 0 124.66 23.3;" xml:space="preserve">
<g>
	<path class="st0" d="M8.89,7.96c0,0.33-0.16,0.61-0.49,0.85C8.07,9.04,7.67,9.16,7.21,9.16H1.42C1.14,9.16,1,9.06,1,8.86V7.42
		c0-0.2,0.14-0.3,0.42-0.3h3.97c0.18,0.01,0.33-0.04,0.47-0.13c0.13-0.1,0.2-0.21,0.2-0.35V6.58C6.04,6.45,5.97,6.34,5.85,6.24
		C5.72,6.15,5.56,6.1,5.39,6.1H2.67c-0.46,0-0.85-0.12-1.18-0.35C1.16,5.52,1,5.24,1,4.9V2.2c0-0.33,0.16-0.61,0.49-0.85
		C1.82,1.12,2.21,1,2.67,1h5.8c0.28,0,0.42,0.1,0.42,0.3v1.44c0,0.2-0.14,0.3-0.42,0.3H4.5c-0.19,0-0.35,0.05-0.48,0.14
		s-0.19,0.2-0.19,0.34v0.07c0,0.13,0.06,0.25,0.19,0.34S4.31,4.06,4.5,4.06h2.7c0.47,0,0.86,0.12,1.19,0.35
		c0.33,0.24,0.49,0.52,0.49,0.85V7.96z"/>
	<path class="st0" d="M17.18,2.74c0,0.2-0.14,0.3-0.42,0.3h-1.58c-0.28,0-0.42,0.1-0.42,0.3v5.52c0,0.2-0.14,0.3-0.42,0.3h-2
		c-0.28,0-0.42-0.1-0.42-0.3V3.34c0-0.2-0.14-0.3-0.42-0.3H9.92c-0.28,0-0.42-0.1-0.42-0.3V1.3C9.51,1.1,9.65,1,9.92,1h6.84
		c0.28,0,0.42,0.1,0.42,0.3V2.74z"/>
	<path class="st0" d="M26.22,8.86c0,0.19-0.14,0.29-0.42,0.3h-1.6c-0.31,0-0.54-0.09-0.7-0.28l-2.15-2.59
		c-0.04-0.02-0.1-0.09-0.15-0.2c-0.06-0.11-0.08-0.19-0.08-0.24V4.53c0-0.2,0.14-0.3,0.42-0.3h0.65c0.19,0,0.35-0.05,0.48-0.14
		c0.13-0.09,0.19-0.21,0.19-0.34V3.52c0-0.14-0.06-0.25-0.19-0.34c-0.13-0.09-0.29-0.14-0.48-0.14h-1.13
		c-0.28,0.01-0.42,0.11-0.42,0.3v5.52c0,0.2-0.14,0.3-0.42,0.3h-2c-0.28,0-0.42-0.1-0.42-0.3V1.3c0-0.2,0.14-0.3,0.42-0.3h5.81
		c0.46,0,0.85,0.12,1.17,0.35c0.33,0.24,0.49,0.52,0.49,0.85v2.87c0,0.26-0.1,0.49-0.31,0.7c-0.21,0.21-0.48,0.35-0.81,0.43
		l0.53,0.65c0.13,0.18,0.31,0.27,0.53,0.28h0.17c0.28,0.02,0.42,0.12,0.42,0.3V8.86z"/>
	<path class="st0" d="M34.73,8.86c0,0.2-0.14,0.3-0.42,0.3h-2c-0.28,0-0.42-0.1-0.42-0.3V7.42c0-0.2-0.14-0.3-0.42-0.3h-0.92
		c-0.28,0-0.42-0.1-0.42-0.3V5.38c0-0.2,0.14-0.3,0.42-0.3h0.92c0.28,0,0.42-0.1,0.42-0.3V3.34c0-0.2-0.14-0.3-0.42-0.3h-1.38
		c-0.28,0-0.42,0.1-0.42,0.3v5.52c0,0.2-0.14,0.3-0.42,0.3h-2c-0.28,0-0.42-0.1-0.42-0.3V1.3c0-0.2,0.14-0.3,0.42-0.3h7.06
		c0.28,0,0.42,0.1,0.42,0.3V8.86z"/>
	<path class="st0" d="M38.18,8.86c0,0.2-0.14,0.3-0.42,0.3h-2c-0.28,0-0.42-0.1-0.42-0.3V1.3c0-0.2,0.14-0.3,0.42-0.3h2
		c0.28,0,0.42,0.1,0.42,0.3V8.86z"/>
	<path class="st0" d="M46.69,8.86c0,0.2-0.14,0.3-0.42,0.3h-5.8c-0.47,0-0.86-0.12-1.18-0.35c-0.32-0.24-0.48-0.52-0.48-0.85V2.2
		c0-0.33,0.16-0.61,0.48-0.85C39.6,1.12,40,1,40.46,1h5.8c0.28,0,0.42,0.1,0.42,0.3v1.44c0,0.2-0.14,0.3-0.42,0.3H42.3
		c-0.18,0-0.33,0.05-0.47,0.14c-0.13,0.09-0.2,0.21-0.2,0.34v3.12c0,0.14,0.07,0.25,0.2,0.34c0.13,0.09,0.29,0.14,0.46,0.14h1.14
		c0.28,0,0.41-0.1,0.41-0.3V6.39c0-0.2-0.14-0.3-0.42-0.3h-0.92c-0.28,0-0.42-0.1-0.42-0.3V4.35c0-0.2,0.14-0.3,0.42-0.3h3.75
		c0.28,0,0.42,0.1,0.42,0.3V8.86z"/>
	<path class="st0" d="M50.14,8.86c0,0.2-0.14,0.3-0.42,0.3h-2c-0.28,0-0.42-0.1-0.42-0.3V1.3c0-0.2,0.14-0.3,0.42-0.3h2
		c0.28,0,0.42,0.1,0.42,0.3V8.86z M55.19,8.86c0,0.2-0.14,0.3-0.42,0.3h-2c-0.28,0-0.42-0.1-0.42-0.3V7.42c0-0.2-0.14-0.3-0.42-0.3
		h-0.92c-0.28,0-0.42-0.1-0.42-0.3V5.38c0-0.2,0.14-0.3,0.42-0.3h0.92c0.28,0,0.42-0.1,0.42-0.3V1.3c0-0.2,0.14-0.3,0.42-0.3h2
		c0.28,0,0.42,0.1,0.42,0.3V8.86z"/>
	<path class="st0" d="M63.48,2.74c0,0.2-0.14,0.3-0.42,0.3h-1.58c-0.28,0-0.42,0.1-0.42,0.3v5.52c0,0.2-0.14,0.3-0.42,0.3h-2
		c-0.28,0-0.42-0.1-0.42-0.3V3.34c0-0.2-0.14-0.3-0.42-0.3h-1.58c-0.28,0-0.42-0.1-0.42-0.3V1.3c0-0.2,0.14-0.3,0.42-0.3h6.84
		c0.28,0,0.42,0.1,0.42,0.3V2.74z"/>
	<path class="st0" d="M75.22,2.74c0,0.2-0.14,0.3-0.42,0.3h-1.58c-0.28,0-0.42,0.1-0.42,0.3v5.52c0,0.2-0.14,0.3-0.42,0.3h-2
		c-0.28,0-0.42-0.1-0.42-0.3V3.34c0-0.2-0.14-0.3-0.42-0.3h-1.58c-0.28,0-0.42-0.1-0.42-0.3V1.3c0-0.2,0.14-0.3,0.42-0.3h6.84
		c0.28,0,0.42,0.1,0.42,0.3V2.74z"/>
	<path class="st0" d="M83.73,7.96c0,0.33-0.16,0.61-0.49,0.85s-0.72,0.35-1.18,0.35h-4.55c-0.47,0-0.86-0.12-1.18-0.35
		C76,8.57,75.84,8.29,75.84,7.96V2.2c0-0.33,0.16-0.61,0.48-0.85C76.65,1.12,77.04,1,77.51,1h4.55c0.46,0,0.85,0.12,1.18,0.35
		c0.33,0.24,0.49,0.52,0.49,0.85V7.96z M80.9,6.64V3.52c0-0.14-0.06-0.25-0.19-0.34c-0.13-0.09-0.29-0.14-0.48-0.14h-0.95
		c-0.4,0.02-0.6,0.18-0.6,0.48v3.12c0,0.13,0.06,0.24,0.18,0.34c0.12,0.1,0.27,0.14,0.45,0.14h0.92c0.19,0,0.35-0.05,0.48-0.14
		C80.83,6.89,80.9,6.78,80.9,6.64z"/>
	<path class="st0" d="M95.69,1.3l-2.24,7.56c-0.07,0.2-0.24,0.3-0.52,0.3h-2.4c-0.28,0-0.44-0.1-0.5-0.3L87.8,1.3
		C87.75,1.1,87.86,1,88.13,1h2c0.28,0,0.44,0.1,0.5,0.3l1.1,3.74l1.12-3.74c0.06-0.2,0.22-0.3,0.5-0.3h2
		C95.64,1,95.75,1.1,95.69,1.3z"/>
	<path class="st0" d="M99.14,8.86c0,0.2-0.14,0.3-0.42,0.3h-2c-0.28,0-0.42-0.1-0.42-0.3V1.3c0-0.2,0.14-0.3,0.42-0.3h2
		c0.28,0,0.42,0.1,0.42,0.3V8.86z"/>
	<path class="st0" d="M107.65,7.96c0,0.33-0.16,0.61-0.49,0.85s-0.72,0.35-1.18,0.35h-5.82c-0.28,0-0.42-0.1-0.42-0.3V1.3
		c0-0.2,0.14-0.3,0.42-0.3h5.82c0.46,0,0.85,0.12,1.18,0.35c0.33,0.24,0.49,0.52,0.49,0.85V7.96z M104.81,6.64V3.52
		c0-0.14-0.06-0.25-0.19-0.34c-0.13-0.09-0.29-0.14-0.48-0.14H103c-0.28,0.01-0.42,0.11-0.42,0.3v3.48c0,0.2,0.14,0.3,0.42,0.3h1.14
		c0.19,0,0.35-0.05,0.48-0.14C104.75,6.89,104.81,6.78,104.81,6.64z"/>
	<path class="st0" d="M116.16,8.86c0,0.2-0.14,0.3-0.42,0.3h-7.07c-0.28,0-0.42-0.1-0.42-0.3V1.3c0-0.2,0.14-0.3,0.42-0.3h7.07
		c0.28,0,0.42,0.1,0.42,0.3v1.44c0,0.2-0.14,0.3-0.42,0.3h-4.23c-0.28,0-0.42,0.1-0.42,0.3v3.48c0,0.2,0.14,0.3,0.42,0.3h4.23
		c0.28,0,0.42,0.1,0.42,0.3V8.86z M116.16,5.79c0,0.2-0.14,0.3-0.42,0.3h-3.75c-0.28,0-0.42-0.1-0.42-0.3V4.35
		c0-0.2,0.14-0.3,0.42-0.3h3.75c0.28,0,0.42,0.1,0.42,0.3V5.79z"/>
	<path class="st0" d="M124.66,7.96c0,0.33-0.16,0.61-0.49,0.85s-0.72,0.35-1.18,0.35h-4.55c-0.47,0-0.86-0.12-1.18-0.35
		c-0.32-0.24-0.48-0.52-0.48-0.85V2.2c0-0.33,0.16-0.61,0.48-0.85c0.32-0.24,0.72-0.35,1.18-0.35H123c0.46,0,0.85,0.12,1.18,0.35
		c0.33,0.24,0.49,0.52,0.49,0.85V7.96z M121.83,6.64V3.52c0-0.14-0.06-0.25-0.19-0.34c-0.13-0.09-0.29-0.14-0.48-0.14h-0.95
		c-0.4,0.02-0.6,0.18-0.6,0.48v3.12c0,0.13,0.06,0.24,0.18,0.34c0.12,0.1,0.27,0.14,0.45,0.14h0.92c0.19,0,0.35-0.05,0.48-0.14
		C121.76,6.89,121.83,6.78,121.83,6.64z"/>
</g>
<g>
	<path class="st1" d="M7.89,6.96c0,0.33-0.16,0.61-0.49,0.85C7.07,8.04,6.67,8.16,6.21,8.16H0.42C0.14,8.16,0,8.06,0,7.86V6.42
		c0-0.2,0.14-0.3,0.42-0.3h3.97c0.18,0.01,0.33-0.04,0.47-0.13c0.13-0.1,0.2-0.21,0.2-0.35V5.58C5.04,5.45,4.97,5.34,4.85,5.24
		C4.72,5.15,4.56,5.1,4.39,5.1H1.67c-0.46,0-0.85-0.12-1.18-0.35C0.16,4.52,0,4.24,0,3.9V1.2c0-0.33,0.16-0.61,0.49-0.85
		C0.82,0.12,1.21,0,1.67,0h5.8c0.28,0,0.42,0.1,0.42,0.3v1.44c0,0.2-0.14,0.3-0.42,0.3H3.5c-0.19,0-0.35,0.05-0.48,0.14
		s-0.19,0.2-0.19,0.34v0.07c0,0.13,0.06,0.25,0.19,0.34S3.31,3.06,3.5,3.06h2.7c0.47,0,0.86,0.12,1.19,0.35
		c0.33,0.24,0.49,0.52,0.49,0.85V6.96z"/>
	<path class="st1" d="M16.18,1.74c0,0.2-0.14,0.3-0.42,0.3h-1.58c-0.28,0-0.42,0.1-0.42,0.3v5.52c0,0.2-0.14,0.3-0.42,0.3h-2
		c-0.28,0-0.42-0.1-0.42-0.3V2.34c0-0.2-0.14-0.3-0.42-0.3H8.92c-0.28,0-0.42-0.1-0.42-0.3V0.3C8.51,0.1,8.65,0,8.92,0h6.84
		c0.28,0,0.42,0.1,0.42,0.3V1.74z"/>
	<path class="st1" d="M25.22,7.86c0,0.19-0.14,0.29-0.42,0.3h-1.6c-0.31,0-0.54-0.09-0.7-0.28l-2.15-2.59
		c-0.04-0.02-0.1-0.09-0.15-0.2c-0.06-0.11-0.08-0.19-0.08-0.24V3.53c0-0.2,0.14-0.3,0.42-0.3h0.65c0.19,0,0.35-0.05,0.48-0.14
		c0.13-0.09,0.19-0.21,0.19-0.34V2.52c0-0.14-0.06-0.25-0.19-0.34c-0.13-0.09-0.29-0.14-0.48-0.14h-1.13
		c-0.28,0.01-0.42,0.11-0.42,0.3v5.52c0,0.2-0.14,0.3-0.42,0.3h-2c-0.28,0-0.42-0.1-0.42-0.3V0.3c0-0.2,0.14-0.3,0.42-0.3h5.81
		c0.46,0,0.85,0.12,1.17,0.35c0.33,0.24,0.49,0.52,0.49,0.85v2.87c0,0.26-0.1,0.49-0.31,0.7c-0.21,0.21-0.48,0.35-0.81,0.43
		l0.53,0.65c0.13,0.18,0.31,0.27,0.53,0.28h0.17c0.28,0.02,0.42,0.12,0.42,0.3V7.86z"/>
	<path class="st1" d="M33.73,7.86c0,0.2-0.14,0.3-0.42,0.3h-2c-0.28,0-0.42-0.1-0.42-0.3V6.42c0-0.2-0.14-0.3-0.42-0.3h-0.92
		c-0.28,0-0.42-0.1-0.42-0.3V4.38c0-0.2,0.14-0.3,0.42-0.3h0.92c0.28,0,0.42-0.1,0.42-0.3V2.34c0-0.2-0.14-0.3-0.42-0.3h-1.38
		c-0.28,0-0.42,0.1-0.42,0.3v5.52c0,0.2-0.14,0.3-0.42,0.3h-2c-0.28,0-0.42-0.1-0.42-0.3V0.3c0-0.2,0.14-0.3,0.42-0.3h7.06
		c0.28,0,0.42,0.1,0.42,0.3V7.86z"/>
	<path class="st1" d="M37.18,7.86c0,0.2-0.14,0.3-0.42,0.3h-2c-0.28,0-0.42-0.1-0.42-0.3V0.3c0-0.2,0.14-0.3,0.42-0.3h2
		c0.28,0,0.42,0.1,0.42,0.3V7.86z"/>
	<path class="st1" d="M45.69,7.86c0,0.2-0.14,0.3-0.42,0.3h-5.8c-0.47,0-0.86-0.12-1.18-0.35c-0.32-0.24-0.48-0.52-0.48-0.85V1.2
		c0-0.33,0.16-0.61,0.48-0.85C38.6,0.12,39,0,39.46,0h5.8c0.28,0,0.42,0.1,0.42,0.3v1.44c0,0.2-0.14,0.3-0.42,0.3H41.3
		c-0.18,0-0.33,0.05-0.47,0.14c-0.13,0.09-0.2,0.21-0.2,0.34v3.12c0,0.14,0.07,0.25,0.2,0.34c0.13,0.09,0.29,0.14,0.46,0.14h1.14
		c0.28,0,0.41-0.1,0.41-0.3V5.39c0-0.2-0.14-0.3-0.42-0.3h-0.92c-0.28,0-0.42-0.1-0.42-0.3V3.35c0-0.2,0.14-0.3,0.42-0.3h3.75
		c0.28,0,0.42,0.1,0.42,0.3V7.86z"/>
	<path class="st1" d="M49.14,7.86c0,0.2-0.14,0.3-0.42,0.3h-2c-0.28,0-0.42-0.1-0.42-0.3V0.3c0-0.2,0.14-0.3,0.42-0.3h2
		c0.28,0,0.42,0.1,0.42,0.3V7.86z M54.19,7.86c0,0.2-0.14,0.3-0.42,0.3h-2c-0.28,0-0.42-0.1-0.42-0.3V6.42c0-0.2-0.14-0.3-0.42-0.3
		h-0.92c-0.28,0-0.42-0.1-0.42-0.3V4.38c0-0.2,0.14-0.3,0.42-0.3h0.92c0.28,0,0.42-0.1,0.42-0.3V0.3c0-0.2,0.14-0.3,0.42-0.3h2
		c0.28,0,0.42,0.1,0.42,0.3V7.86z"/>
	<path class="st1" d="M62.48,1.74c0,0.2-0.14,0.3-0.42,0.3h-1.58c-0.28,0-0.42,0.1-0.42,0.3v5.52c0,0.2-0.14,0.3-0.42,0.3h-2
		c-0.28,0-0.42-0.1-0.42-0.3V2.34c0-0.2-0.14-0.3-0.42-0.3h-1.58c-0.28,0-0.42-0.1-0.42-0.3V0.3c0-0.2,0.14-0.3,0.42-0.3h6.84
		c0.28,0,0.42,0.1,0.42,0.3V1.74z"/>
	<path class="st1" d="M74.22,1.74c0,0.2-0.14,0.3-0.42,0.3h-1.58c-0.28,0-0.42,0.1-0.42,0.3v5.52c0,0.2-0.14,0.3-0.42,0.3h-2
		c-0.28,0-0.42-0.1-0.42-0.3V2.34c0-0.2-0.14-0.3-0.42-0.3h-1.58c-0.28,0-0.42-0.1-0.42-0.3V0.3c0-0.2,0.14-0.3,0.42-0.3h6.84
		c0.28,0,0.42,0.1,0.42,0.3V1.74z"/>
	<path class="st1" d="M82.73,6.96c0,0.33-0.16,0.61-0.49,0.85s-0.72,0.35-1.18,0.35h-4.55c-0.47,0-0.86-0.12-1.18-0.35
		C75,7.57,74.84,7.29,74.84,6.96V1.2c0-0.33,0.16-0.61,0.48-0.85C75.65,0.12,76.04,0,76.51,0h4.55c0.46,0,0.85,0.12,1.18,0.35
		c0.33,0.24,0.49,0.52,0.49,0.85V6.96z M79.9,5.64V2.52c0-0.14-0.06-0.25-0.19-0.34c-0.13-0.09-0.29-0.14-0.48-0.14h-0.95
		c-0.4,0.02-0.6,0.18-0.6,0.48v3.12c0,0.13,0.06,0.24,0.18,0.34c0.12,0.1,0.27,0.14,0.45,0.14h0.92c0.19,0,0.35-0.05,0.48-0.14
		C79.83,5.89,79.9,5.78,79.9,5.64z"/>
	<path class="st1" d="M94.69,0.3l-2.24,7.56c-0.07,0.2-0.24,0.3-0.52,0.3h-2.4c-0.28,0-0.44-0.1-0.5-0.3L86.8,0.3
		C86.75,0.1,86.86,0,87.13,0h2c0.28,0,0.44,0.1,0.5,0.3l1.1,3.74l1.12-3.74c0.06-0.2,0.22-0.3,0.5-0.3h2
		C94.64,0,94.75,0.1,94.69,0.3z"/>
	<path class="st1" d="M98.14,7.86c0,0.2-0.14,0.3-0.42,0.3h-2c-0.28,0-0.42-0.1-0.42-0.3V0.3c0-0.2,0.14-0.3,0.42-0.3h2
		c0.28,0,0.42,0.1,0.42,0.3V7.86z"/>
	<path class="st1" d="M106.65,6.96c0,0.33-0.16,0.61-0.49,0.85s-0.72,0.35-1.18,0.35h-5.82c-0.28,0-0.42-0.1-0.42-0.3V0.3
		c0-0.2,0.14-0.3,0.42-0.3h5.82c0.46,0,0.85,0.12,1.18,0.35c0.33,0.24,0.49,0.52,0.49,0.85V6.96z M103.81,5.64V2.52
		c0-0.14-0.06-0.25-0.19-0.34c-0.13-0.09-0.29-0.14-0.48-0.14H102c-0.28,0.01-0.42,0.11-0.42,0.3v3.48c0,0.2,0.14,0.3,0.42,0.3h1.14
		c0.19,0,0.35-0.05,0.48-0.14C103.75,5.89,103.81,5.78,103.81,5.64z"/>
	<path class="st1" d="M115.16,7.86c0,0.2-0.14,0.3-0.42,0.3h-7.07c-0.28,0-0.42-0.1-0.42-0.3V0.3c0-0.2,0.14-0.3,0.42-0.3h7.07
		c0.28,0,0.42,0.1,0.42,0.3v1.44c0,0.2-0.14,0.3-0.42,0.3h-4.23c-0.28,0-0.42,0.1-0.42,0.3v3.48c0,0.2,0.14,0.3,0.42,0.3h4.23
		c0.28,0,0.42,0.1,0.42,0.3V7.86z M115.16,4.79c0,0.2-0.14,0.3-0.42,0.3h-3.75c-0.28,0-0.42-0.1-0.42-0.3V3.35
		c0-0.2,0.14-0.3,0.42-0.3h3.75c0.28,0,0.42,0.1,0.42,0.3V4.79z"/>
	<path class="st1" d="M123.66,6.96c0,0.33-0.16,0.61-0.49,0.85s-0.72,0.35-1.18,0.35h-4.55c-0.47,0-0.86-0.12-1.18-0.35
		c-0.32-0.24-0.48-0.52-0.48-0.85V1.2c0-0.33,0.16-0.61,0.48-0.85c0.32-0.24,0.72-0.35,1.18-0.35H122c0.46,0,0.85,0.12,1.18,0.35
		c0.33,0.24,0.49,0.52,0.49,0.85V6.96z M120.83,5.64V2.52c0-0.14-0.06-0.25-0.19-0.34c-0.13-0.09-0.29-0.14-0.48-0.14h-0.95
		c-0.4,0.02-0.6,0.18-0.6,0.48v3.12c0,0.13,0.06,0.24,0.18,0.34c0.12,0.1,0.27,0.14,0.45,0.14h0.92c0.19,0,0.35-0.05,0.48-0.14
		C120.76,5.89,120.83,5.78,120.83,5.64z"/>
</g>
<g>
	<path class="st0" d="M19.08,14.42v6.26h-1.47v-6.26h-1.52v-1.28h4.51v1.28H19.08z"/>
	<path class="st0" d="M21.1,12.2h1.4v3.98h0.02c0.27-0.38,0.7-0.57,1.28-0.57c1.13,0,1.7,0.69,1.7,2.07v3h-1.4v-2.6
		c0-0.19,0-0.31,0-0.38c0-0.07-0.01-0.18-0.04-0.33c-0.03-0.16-0.06-0.27-0.11-0.34c-0.05-0.07-0.12-0.14-0.23-0.2
		s-0.23-0.1-0.38-0.1c-0.19,0-0.35,0.05-0.48,0.14c-0.12,0.09-0.21,0.23-0.26,0.42c-0.05,0.18-0.08,0.34-0.09,0.46
		c-0.01,0.13-0.02,0.29-0.02,0.5v2.43h-1.4V12.2z"/>
	<path class="st0" d="M30.86,18.45h-3.23c0,0.36,0.08,0.67,0.24,0.93c0.16,0.26,0.4,0.39,0.73,0.39c0.41,0,0.72-0.22,0.94-0.67
		l1.29,0.21c-0.17,0.49-0.45,0.86-0.85,1.13c-0.4,0.27-0.86,0.4-1.38,0.4c-0.75,0-1.34-0.24-1.79-0.72
		c-0.44-0.48-0.67-1.09-0.67-1.85c0-0.78,0.21-1.42,0.62-1.92c0.41-0.5,1-0.74,1.76-0.74s1.35,0.25,1.74,0.74
		c0.39,0.5,0.59,1.14,0.59,1.93V18.45z M27.67,17.58h1.87c-0.04-0.27-0.14-0.51-0.31-0.7c-0.16-0.19-0.37-0.29-0.63-0.29
		c-0.27,0-0.48,0.09-0.64,0.28C27.81,17.06,27.71,17.3,27.67,17.58z"/>
	<path class="st0" d="M34.44,20.68v-7.54h1.83c0.73,0,1.29,0.16,1.68,0.48c0.39,0.32,0.58,0.85,0.58,1.56
		c0,0.29-0.05,0.58-0.17,0.85c-0.11,0.27-0.27,0.48-0.49,0.62c0.42,0.07,0.74,0.29,0.96,0.66c0.22,0.37,0.33,0.78,0.33,1.23
		c0,0.71-0.22,1.24-0.66,1.6c-0.44,0.36-1.03,0.54-1.75,0.54H34.44z M35.91,14.32v1.96h0.18c0.38,0,0.65-0.07,0.82-0.22
		c0.17-0.14,0.25-0.4,0.25-0.77c0-0.36-0.09-0.61-0.27-0.75c-0.18-0.14-0.44-0.21-0.78-0.21H35.91z M35.91,17.4v2.1h0.31
		c0.23,0,0.42-0.01,0.57-0.03c0.15-0.02,0.3-0.07,0.46-0.14c0.15-0.07,0.26-0.18,0.33-0.33c0.07-0.15,0.11-0.35,0.11-0.58
		c0-0.19-0.03-0.35-0.1-0.48c-0.06-0.13-0.14-0.23-0.22-0.3c-0.09-0.07-0.21-0.12-0.36-0.16s-0.29-0.06-0.4-0.06
		c-0.12-0.01-0.27-0.01-0.46-0.01H35.91z"/>
	<path class="st0" d="M39.86,16.9h2.44v1.15h-2.44V16.9z"/>
	<path class="st0" d="M49.5,20.68L48.9,16h-0.02l-1.71,4.78h-0.51L45.01,16h-0.02l-0.67,4.68h-1.48l1.27-7.74h1.04l1.86,4.97
		l1.78-4.97h1.06l1.13,7.74H49.5z"/>
	<path class="st0" d="M51.97,16.34c0.48-0.49,1.1-0.73,1.86-0.73c0.76,0,1.38,0.24,1.86,0.73c0.48,0.49,0.72,1.12,0.72,1.88
		c0,0.77-0.24,1.39-0.71,1.88c-0.48,0.49-1.1,0.73-1.86,0.73c-0.77,0-1.39-0.24-1.87-0.73c-0.48-0.49-0.71-1.11-0.71-1.88
		C51.25,17.46,51.49,16.83,51.97,16.34z M54.67,17.27c-0.21-0.28-0.49-0.42-0.84-0.42c-0.35,0-0.63,0.14-0.84,0.42
		c-0.21,0.28-0.32,0.6-0.32,0.96c0,0.35,0.11,0.67,0.32,0.95c0.22,0.28,0.5,0.42,0.84,0.42c0.34,0,0.62-0.14,0.83-0.42
		c0.22-0.28,0.32-0.6,0.32-0.95C54.99,17.87,54.88,17.55,54.67,17.27z"/>
	<path class="st0" d="M57.93,15.77l1.15,2.77l1.01-2.77h1.53l-2.26,5.01h-0.72l-2.25-5.01H57.93z"/>
	<path class="st0" d="M62.13,13.12c0.16-0.16,0.36-0.24,0.58-0.24s0.42,0.08,0.58,0.24c0.16,0.16,0.25,0.36,0.25,0.58
		c0,0.23-0.08,0.43-0.24,0.59c-0.16,0.16-0.36,0.24-0.59,0.24s-0.43-0.08-0.59-0.24c-0.16-0.16-0.24-0.36-0.24-0.59
		C61.89,13.48,61.97,13.29,62.13,13.12z M63.42,15.77v4.91h-1.4v-4.91H63.42z"/>
	<path class="st0" d="M68.84,18.45h-3.23c0,0.36,0.08,0.67,0.24,0.93c0.16,0.26,0.4,0.39,0.73,0.39c0.41,0,0.72-0.22,0.94-0.67
		l1.29,0.21c-0.17,0.49-0.45,0.86-0.85,1.13c-0.4,0.27-0.86,0.4-1.38,0.4c-0.75,0-1.34-0.24-1.79-0.72
		c-0.44-0.48-0.67-1.09-0.67-1.85c0-0.78,0.21-1.42,0.62-1.92c0.41-0.5,1-0.74,1.76-0.74s1.35,0.25,1.74,0.74
		c0.39,0.5,0.59,1.14,0.59,1.93V18.45z M65.65,17.58h1.87c-0.04-0.27-0.14-0.51-0.31-0.7c-0.16-0.19-0.37-0.29-0.63-0.29
		c-0.27,0-0.48,0.09-0.64,0.28C65.79,17.06,65.69,17.3,65.65,17.58z"/>
	<path class="st0" d="M78.46,19.71c-0.7,0.78-1.59,1.17-2.67,1.17s-1.97-0.39-2.68-1.17c-0.7-0.78-1.05-1.72-1.05-2.81
		c0-1.08,0.35-2.01,1.06-2.79c0.71-0.78,1.6-1.17,2.67-1.17c1.07,0,1.96,0.39,2.67,1.17c0.71,0.78,1.06,1.71,1.06,2.79
		C79.52,18,79.17,18.94,78.46,19.71z M77.36,15.14c-0.42-0.5-0.95-0.75-1.57-0.75c-0.63,0-1.15,0.25-1.58,0.75s-0.63,1.07-0.63,1.7
		c0,0.61,0.22,1.19,0.66,1.75s0.96,0.84,1.55,0.84c0.59,0,1.11-0.28,1.55-0.84S78,17.45,78,16.84C78,16.21,77.79,15.64,77.36,15.14z
		"/>
	<path class="st0" d="M83.45,20.68v-0.46h-0.02c-0.14,0.19-0.33,0.34-0.57,0.46c-0.24,0.11-0.49,0.17-0.75,0.17
		c-0.69,0-1.24-0.26-1.65-0.79c-0.41-0.53-0.62-1.14-0.62-1.85c0-0.69,0.21-1.3,0.62-1.81c0.41-0.52,0.95-0.77,1.63-0.77
		c0.26,0,0.51,0.05,0.75,0.16c0.24,0.11,0.44,0.26,0.59,0.45h0.02V12.2h1.4v8.48H83.45z M81.59,19.17c0.22,0.28,0.5,0.42,0.83,0.42
		s0.62-0.14,0.83-0.42s0.33-0.6,0.33-0.96s-0.11-0.67-0.33-0.95c-0.22-0.28-0.5-0.42-0.83-0.42s-0.62,0.14-0.83,0.42
		c-0.22,0.28-0.33,0.6-0.33,0.95S81.38,18.89,81.59,19.17z"/>
	<path class="st0" d="M87.26,19.93l-2.09-4.16h1.59l1.17,2.79l1.26-2.79h1.56l-3.57,7.53h-1.54L87.26,19.93z"/>
	<path class="st0" d="M94.17,16.12l-0.6,0.81c-0.24-0.23-0.49-0.34-0.74-0.34c-0.12,0-0.23,0.04-0.32,0.13s-0.14,0.18-0.14,0.29
		c0,0.07,0.02,0.13,0.05,0.19c0.03,0.06,0.09,0.11,0.17,0.15c0.08,0.04,0.15,0.08,0.21,0.11c0.07,0.03,0.16,0.07,0.29,0.12
		c0.12,0.05,0.22,0.09,0.29,0.12c0.31,0.13,0.55,0.31,0.73,0.52c0.18,0.21,0.27,0.51,0.27,0.9c0,0.53-0.19,0.95-0.55,1.27
		c-0.37,0.32-0.82,0.48-1.35,0.48c-0.7,0-1.28-0.27-1.73-0.82l0.64-0.83c0.34,0.38,0.69,0.57,1.04,0.57c0.16,0,0.29-0.05,0.4-0.15
		c0.11-0.1,0.16-0.23,0.16-0.39c0-0.08-0.02-0.15-0.04-0.21s-0.08-0.12-0.17-0.17s-0.15-0.09-0.21-0.12
		c-0.06-0.03-0.15-0.07-0.28-0.12c-0.13-0.05-0.23-0.09-0.28-0.11c-0.31-0.13-0.55-0.29-0.72-0.48c-0.17-0.19-0.26-0.46-0.26-0.81
		c0-0.46,0.15-0.84,0.44-1.14c0.29-0.3,0.67-0.45,1.13-0.45C93.25,15.61,93.78,15.78,94.17,16.12z"/>
	<path class="st0" d="M98.27,16.12l-0.6,0.81c-0.24-0.23-0.49-0.34-0.74-0.34c-0.12,0-0.23,0.04-0.32,0.13s-0.14,0.18-0.14,0.29
		c0,0.07,0.02,0.13,0.05,0.19c0.03,0.06,0.09,0.11,0.17,0.15c0.08,0.04,0.15,0.08,0.21,0.11c0.07,0.03,0.16,0.07,0.29,0.12
		c0.12,0.05,0.22,0.09,0.29,0.12c0.31,0.13,0.55,0.31,0.73,0.52c0.18,0.21,0.27,0.51,0.27,0.9c0,0.53-0.19,0.95-0.55,1.27
		c-0.37,0.32-0.82,0.48-1.35,0.48c-0.7,0-1.28-0.27-1.73-0.82l0.64-0.83c0.34,0.38,0.69,0.57,1.04,0.57c0.16,0,0.29-0.05,0.4-0.15
		c0.11-0.1,0.16-0.23,0.16-0.39c0-0.08-0.02-0.15-0.04-0.21s-0.08-0.12-0.17-0.17s-0.15-0.09-0.21-0.12
		c-0.06-0.03-0.15-0.07-0.28-0.12c-0.13-0.05-0.23-0.09-0.28-0.11c-0.31-0.13-0.55-0.29-0.72-0.48c-0.17-0.19-0.26-0.46-0.26-0.81
		c0-0.46,0.15-0.84,0.44-1.14c0.29-0.3,0.67-0.45,1.13-0.45C97.35,15.61,97.88,15.78,98.27,16.12z"/>
	<path class="st0" d="M103.61,18.45h-3.23c0,0.36,0.08,0.67,0.24,0.93c0.16,0.26,0.4,0.39,0.73,0.39c0.41,0,0.72-0.22,0.94-0.67
		l1.29,0.21c-0.17,0.49-0.45,0.86-0.85,1.13c-0.4,0.27-0.86,0.4-1.38,0.4c-0.75,0-1.34-0.24-1.79-0.72
		c-0.44-0.48-0.67-1.09-0.67-1.85c0-0.78,0.21-1.42,0.62-1.92c0.41-0.5,1-0.74,1.76-0.74s1.35,0.25,1.74,0.74
		c0.39,0.5,0.59,1.14,0.59,1.93V18.45z M100.42,17.58h1.87c-0.04-0.27-0.14-0.51-0.31-0.7c-0.16-0.19-0.37-0.29-0.63-0.29
		c-0.27,0-0.48,0.09-0.64,0.28C100.56,17.06,100.46,17.3,100.42,17.58z"/>
	<path class="st0" d="M105.67,19.93l-2.09-4.16h1.59l1.17,2.79l1.26-2.79h1.56l-3.57,7.53h-1.54L105.67,19.93z"/>
</g>
<g>
	<path class="st1" d="M18.08,13.42v6.26h-1.47v-6.26h-1.52v-1.28h4.51v1.28H18.08z"/>
	<path class="st1" d="M20.1,11.2h1.4v3.98h0.02c0.27-0.38,0.7-0.57,1.28-0.57c1.13,0,1.7,0.69,1.7,2.07v3h-1.4v-2.6
		c0-0.19,0-0.31,0-0.38c0-0.07-0.01-0.18-0.04-0.33c-0.03-0.16-0.06-0.27-0.11-0.34c-0.05-0.07-0.12-0.14-0.23-0.2
		s-0.23-0.1-0.38-0.1c-0.19,0-0.35,0.05-0.48,0.14c-0.12,0.09-0.21,0.23-0.26,0.42c-0.05,0.18-0.08,0.34-0.09,0.46
		c-0.01,0.13-0.02,0.29-0.02,0.5v2.43h-1.4V11.2z"/>
	<path class="st1" d="M29.86,17.45h-3.23c0,0.36,0.08,0.67,0.24,0.93c0.16,0.26,0.4,0.39,0.73,0.39c0.41,0,0.72-0.22,0.94-0.67
		l1.29,0.21c-0.17,0.49-0.45,0.86-0.85,1.13c-0.4,0.27-0.86,0.4-1.38,0.4c-0.75,0-1.34-0.24-1.79-0.72
		c-0.44-0.48-0.67-1.09-0.67-1.85c0-0.78,0.21-1.42,0.62-1.92c0.41-0.5,1-0.74,1.76-0.74s1.35,0.25,1.74,0.74
		c0.39,0.5,0.59,1.14,0.59,1.93V17.45z M26.67,16.58h1.87c-0.04-0.27-0.14-0.51-0.31-0.7c-0.16-0.19-0.37-0.29-0.63-0.29
		c-0.27,0-0.48,0.09-0.64,0.28C26.81,16.06,26.71,16.3,26.67,16.58z"/>
	<path class="st1" d="M33.44,19.68v-7.54h1.83c0.73,0,1.29,0.16,1.68,0.48c0.39,0.32,0.58,0.85,0.58,1.56
		c0,0.29-0.05,0.58-0.17,0.85c-0.11,0.27-0.27,0.48-0.49,0.62c0.42,0.07,0.74,0.29,0.96,0.66c0.22,0.37,0.33,0.78,0.33,1.23
		c0,0.71-0.22,1.24-0.66,1.6c-0.44,0.36-1.03,0.54-1.75,0.54H33.44z M34.91,13.32v1.96h0.18c0.38,0,0.65-0.07,0.82-0.22
		c0.17-0.14,0.25-0.4,0.25-0.77c0-0.36-0.09-0.61-0.27-0.75c-0.18-0.14-0.44-0.21-0.78-0.21H34.91z M34.91,16.4v2.1h0.31
		c0.23,0,0.42-0.01,0.57-0.03c0.15-0.02,0.3-0.07,0.46-0.14c0.15-0.07,0.26-0.18,0.33-0.33c0.07-0.15,0.11-0.35,0.11-0.58
		c0-0.19-0.03-0.35-0.1-0.48c-0.06-0.13-0.14-0.23-0.22-0.3c-0.09-0.07-0.21-0.12-0.36-0.16s-0.29-0.06-0.4-0.06
		c-0.12-0.01-0.27-0.01-0.46-0.01H34.91z"/>
	<path class="st1" d="M38.86,15.9h2.44v1.15h-2.44V15.9z"/>
	<path class="st1" d="M48.5,19.68L47.9,15h-0.02l-1.71,4.78h-0.51L44.01,15h-0.02l-0.67,4.68h-1.48l1.27-7.74h1.04l1.86,4.97
		l1.78-4.97h1.06l1.13,7.74H48.5z"/>
	<path class="st1" d="M50.97,15.34c0.48-0.49,1.1-0.73,1.86-0.73c0.76,0,1.38,0.24,1.86,0.73c0.48,0.49,0.72,1.12,0.72,1.88
		c0,0.77-0.24,1.39-0.71,1.88c-0.48,0.49-1.1,0.73-1.86,0.73c-0.77,0-1.39-0.24-1.87-0.73c-0.48-0.49-0.71-1.11-0.71-1.88
		C50.25,16.46,50.49,15.83,50.97,15.34z M53.67,16.27c-0.21-0.28-0.49-0.42-0.84-0.42c-0.35,0-0.63,0.14-0.84,0.42
		c-0.21,0.28-0.32,0.6-0.32,0.96c0,0.35,0.11,0.67,0.32,0.95c0.22,0.28,0.5,0.42,0.84,0.42c0.34,0,0.62-0.14,0.83-0.42
		c0.22-0.28,0.32-0.6,0.32-0.95C53.99,16.87,53.88,16.55,53.67,16.27z"/>
	<path class="st1" d="M56.93,14.77l1.15,2.77l1.01-2.77h1.53l-2.26,5.01h-0.72l-2.25-5.01H56.93z"/>
	<path class="st1" d="M61.13,12.12c0.16-0.16,0.36-0.24,0.58-0.24s0.42,0.08,0.58,0.24c0.16,0.16,0.25,0.36,0.25,0.58
		c0,0.23-0.08,0.43-0.24,0.59c-0.16,0.16-0.36,0.24-0.59,0.24s-0.43-0.08-0.59-0.24c-0.16-0.16-0.24-0.36-0.24-0.59
		C60.89,12.48,60.97,12.29,61.13,12.12z M62.42,14.77v4.91h-1.4v-4.91H62.42z"/>
	<path class="st1" d="M67.84,17.45h-3.23c0,0.36,0.08,0.67,0.24,0.93c0.16,0.26,0.4,0.39,0.73,0.39c0.41,0,0.72-0.22,0.94-0.67
		l1.29,0.21c-0.17,0.49-0.45,0.86-0.85,1.13c-0.4,0.27-0.86,0.4-1.38,0.4c-0.75,0-1.34-0.24-1.79-0.72
		c-0.44-0.48-0.67-1.09-0.67-1.85c0-0.78,0.21-1.42,0.62-1.92c0.41-0.5,1-0.74,1.76-0.74s1.35,0.25,1.74,0.74
		c0.39,0.5,0.59,1.14,0.59,1.93V17.45z M64.65,16.58h1.87c-0.04-0.27-0.14-0.51-0.31-0.7c-0.16-0.19-0.37-0.29-0.63-0.29
		c-0.27,0-0.48,0.09-0.64,0.28C64.79,16.06,64.69,16.3,64.65,16.58z"/>
	<path class="st1" d="M77.46,18.71c-0.7,0.78-1.59,1.17-2.67,1.17s-1.97-0.39-2.68-1.17c-0.7-0.78-1.05-1.72-1.05-2.81
		c0-1.08,0.35-2.01,1.06-2.79c0.71-0.78,1.6-1.17,2.67-1.17c1.07,0,1.96,0.39,2.67,1.17c0.71,0.78,1.06,1.71,1.06,2.79
		C78.52,17,78.17,17.94,77.46,18.71z M76.36,14.14c-0.42-0.5-0.95-0.75-1.57-0.75c-0.63,0-1.15,0.25-1.58,0.75s-0.63,1.07-0.63,1.7
		c0,0.61,0.22,1.19,0.66,1.75s0.96,0.84,1.55,0.84c0.59,0,1.11-0.28,1.55-0.84S77,16.45,77,15.84C77,15.21,76.79,14.64,76.36,14.14z
		"/>
	<path class="st1" d="M82.45,19.68v-0.46h-0.02c-0.14,0.19-0.33,0.34-0.57,0.46c-0.24,0.11-0.49,0.17-0.75,0.17
		c-0.69,0-1.24-0.26-1.65-0.79c-0.41-0.53-0.62-1.14-0.62-1.85c0-0.69,0.21-1.3,0.62-1.81c0.41-0.52,0.95-0.77,1.63-0.77
		c0.26,0,0.51,0.05,0.75,0.16c0.24,0.11,0.44,0.26,0.59,0.45h0.02V11.2h1.4v8.48H82.45z M80.59,18.17c0.22,0.28,0.5,0.42,0.83,0.42
		s0.62-0.14,0.83-0.42s0.33-0.6,0.33-0.96s-0.11-0.67-0.33-0.95c-0.22-0.28-0.5-0.42-0.83-0.42s-0.62,0.14-0.83,0.42
		c-0.22,0.28-0.33,0.6-0.33,0.95S80.38,17.89,80.59,18.17z"/>
	<path class="st1" d="M86.26,18.93l-2.09-4.16h1.59l1.17,2.79l1.26-2.79h1.56l-3.57,7.53h-1.54L86.26,18.93z"/>
	<path class="st1" d="M93.17,15.12l-0.6,0.81c-0.24-0.23-0.49-0.34-0.74-0.34c-0.12,0-0.23,0.04-0.32,0.13s-0.14,0.18-0.14,0.29
		c0,0.07,0.02,0.13,0.05,0.19c0.03,0.06,0.09,0.11,0.17,0.15c0.08,0.04,0.15,0.08,0.21,0.11c0.07,0.03,0.16,0.07,0.29,0.12
		c0.12,0.05,0.22,0.09,0.29,0.12c0.31,0.13,0.55,0.31,0.73,0.52c0.18,0.21,0.27,0.51,0.27,0.9c0,0.53-0.19,0.95-0.55,1.27
		c-0.37,0.32-0.82,0.48-1.35,0.48c-0.7,0-1.28-0.27-1.73-0.82l0.64-0.83c0.34,0.38,0.69,0.57,1.04,0.57c0.16,0,0.29-0.05,0.4-0.15
		c0.11-0.1,0.16-0.23,0.16-0.39c0-0.08-0.02-0.15-0.04-0.21s-0.08-0.12-0.17-0.17s-0.15-0.09-0.21-0.12
		c-0.06-0.03-0.15-0.07-0.28-0.12c-0.13-0.05-0.23-0.09-0.28-0.11c-0.31-0.13-0.55-0.29-0.72-0.48c-0.17-0.19-0.26-0.46-0.26-0.81
		c0-0.46,0.15-0.84,0.44-1.14c0.29-0.3,0.67-0.45,1.13-0.45C92.25,14.61,92.78,14.78,93.17,15.12z"/>
	<path class="st1" d="M97.27,15.12l-0.6,0.81c-0.24-0.23-0.49-0.34-0.74-0.34c-0.12,0-0.23,0.04-0.32,0.13s-0.14,0.18-0.14,0.29
		c0,0.07,0.02,0.13,0.05,0.19c0.03,0.06,0.09,0.11,0.17,0.15c0.08,0.04,0.15,0.08,0.21,0.11c0.07,0.03,0.16,0.07,0.29,0.12
		c0.12,0.05,0.22,0.09,0.29,0.12c0.31,0.13,0.55,0.31,0.73,0.52c0.18,0.21,0.27,0.51,0.27,0.9c0,0.53-0.19,0.95-0.55,1.27
		c-0.37,0.32-0.82,0.48-1.35,0.48c-0.7,0-1.28-0.27-1.73-0.82l0.64-0.83c0.34,0.38,0.69,0.57,1.04,0.57c0.16,0,0.29-0.05,0.4-0.15
		c0.11-0.1,0.16-0.23,0.16-0.39c0-0.08-0.02-0.15-0.04-0.21s-0.08-0.12-0.17-0.17s-0.15-0.09-0.21-0.12
		c-0.06-0.03-0.15-0.07-0.28-0.12c-0.13-0.05-0.23-0.09-0.28-0.11c-0.31-0.13-0.55-0.29-0.72-0.48c-0.17-0.19-0.26-0.46-0.26-0.81
		c0-0.46,0.15-0.84,0.44-1.14c0.29-0.3,0.67-0.45,1.13-0.45C96.35,14.61,96.88,14.78,97.27,15.12z"/>
	<path class="st1" d="M102.61,17.45h-3.23c0,0.36,0.08,0.67,0.24,0.93c0.16,0.26,0.4,0.39,0.73,0.39c0.41,0,0.72-0.22,0.94-0.67
		l1.29,0.21c-0.17,0.49-0.45,0.86-0.85,1.13c-0.4,0.27-0.86,0.4-1.38,0.4c-0.75,0-1.34-0.24-1.79-0.72
		c-0.44-0.48-0.67-1.09-0.67-1.85c0-0.78,0.21-1.42,0.62-1.92c0.41-0.5,1-0.74,1.76-0.74s1.35,0.25,1.74,0.74
		c0.39,0.5,0.59,1.14,0.59,1.93V17.45z M99.42,16.58h1.87c-0.04-0.27-0.14-0.51-0.31-0.7c-0.16-0.19-0.37-0.29-0.63-0.29
		c-0.27,0-0.48,0.09-0.64,0.28C99.56,16.06,99.46,16.3,99.42,16.58z"/>
	<path class="st1" d="M104.67,18.93l-2.09-4.16h1.59l1.17,2.79l1.26-2.79h1.56l-3.57,7.53h-1.54L104.67,18.93z"/>
</g>
</svg>
