<?xml version="1.0" encoding="utf-8"?>
<!-- Generator: Adobe Illustrator 17.1.0, SVG Export Plug-In . SVG Version: 6.00 Build 0)  -->
<!DOCTYPE svg PUBLIC "-//W3C//DTD SVG 1.1//EN" "http://www.w3.org/Graphics/SVG/1.1/DTD/svg11.dtd">
<svg version="1.1" id="Layer_1" xmlns="http://www.w3.org/2000/svg" xmlns:xlink="http://www.w3.org/1999/xlink" x="0px" y="0px"
	 viewBox="0 0 41.02 8.2" style="enable-background:new 0 0 41.02 8.2;" xml:space="preserve">
<g>
	<path style="fill:#FFFFFF;" d="M5.27,1.17h0.59v1.17H4.69V1.76H4.1V1.17H1.76v0.59H1.17v1.17h0.59v0.59h2.93V4.1h0.59v0.59h0.59
		v2.34H5.27v0.59H4.69V8.2H1.17V7.62H0.59V7.03H0V5.86h1.17v0.59h0.59v0.59H4.1V6.45h0.59V5.27H4.1V4.69H1.17V4.1H0.59V3.52H0V1.17
		h0.59V0.59h0.59V0h3.52v0.59h0.59V1.17z"/>
	<path style="fill:#FFFFFF;" d="M8.2,0.59V0h3.52v0.59h0.59v0.59h0.59v5.86H12.3v0.59h-0.59V8.2H8.2V7.62H7.62V7.03H7.03V1.17h0.59
		V0.59H8.2z M11.13,1.17H8.79v0.59H8.2v4.69h0.59v0.59h2.34V6.45h0.59V1.76h-0.59V1.17z"/>
	<path style="fill:#FFFFFF;" d="M15.82,7.03h2.34V6.45h0.59V5.86h1.17v1.17h-0.59v0.59h-0.59V8.2h-3.52V7.62h-0.59V7.03h-0.59V1.17
		h0.59V0.59h0.59V0h3.52v0.59h0.59v0.59h0.59v1.17h-1.17V1.76h-0.59V1.17h-2.34v0.59h-0.59v4.69h0.59V7.03z"/>
	<path style="fill:#FFFFFF;" d="M22.27,8.2V7.03h1.17V1.17h-1.17V0h3.52v1.17h-1.17v5.86h1.17V8.2H22.27z"/>
	<path style="fill:#FFFFFF;" d="M29.3,8.2h-1.17V2.34h0.59V1.76h0.59V1.17h0.59V0.59h0.59V0h1.17v0.59h0.59v0.59h0.59v0.59h0.59
		v0.59h0.59V8.2h-1.17V5.86H29.3V8.2z M29.3,4.69h3.52V2.93h-0.59V2.34h-0.59V1.76h-1.17v0.59h-0.59v0.59H29.3V4.69z"/>
	<path style="fill:#FFFFFF;" d="M35.16,8.2V0h1.17v7.03h4.69V8.2H35.16z"/>
</g>
</svg>
