<?xml version="1.0" encoding="utf-8"?>
<!DOCTYPE svg PUBLIC "-//W3C//DTD SVG 1.1//EN" "http://www.w3.org/Graphics/SVG/1.1/DTD/svg11.dtd">
<svg version="1.1" id="Layer_1" xmlns="http://www.w3.org/2000/svg" xmlns:xlink="http://www.w3.org/1999/xlink" x="0px" y="0px"
	 viewBox="0 0 41 8.2" enable-background="new 0 0 41 8.2" xml:space="preserve">
<g>
	<path fill="#FFFFFF" d="M2.3,1.2H0V0h5.9v1.2H3.5v7H2.3V1.2z"/>
	<path fill="#FFFFFF" d="M7.6,7H7V0h1.2v6.4h0.6V7h2.3V6.4h0.6V0h1.2v7h-0.6v0.6h-0.6v0.6H8.2V7.6H7.6V7z"/>
	<path fill="#FFFFFF" d="M15.2,8.2h-1.2V0h1.2v1.2h0.6v0.6h0.6v0.6h1.2V1.8h0.6V1.2h0.6V0h1.2v8.2h-1.2V2.9h-0.6v0.6h-0.6v1.2h-1.2
		V3.5h-0.6V2.9h-0.6V8.2z"/>
	<path fill="#FFFFFF" d="M21.1,8.2V0h4.7v0.6h0.6v0.6H27v2.3h-0.6v1.2H27V7h-0.6v0.6h-0.6v0.6H21.1z M22.3,3.5h2.9V2.9h0.6V1.8h-0.6
		V1.2h-2.9V3.5z M22.3,7h2.9V6.4h0.6V5.3h-0.6V4.7h-2.9V7z"/>
	<path fill="#FFFFFF" d="M28.1,8.2V0h1.2v7H34v1.2H28.1z"/>
	<path fill="#FFFFFF" d="M36.9,4.7h-0.6v3.5h-1.2V0h4.7v0.6h0.6v0.6H41v2.3h-0.6v0.6h-0.6v0.6h-1.2v0.6h0.6v0.6h0.6v0.6h0.6V7H41
		v1.2h-1.2V7.6h-0.6V7h-0.6V6.4h-0.6V5.9h-0.6V5.3h-0.6V4.7z M36.3,1.2v2.3h2.9V2.9h0.6V1.8h-0.6V1.2H36.3z"/>
</g>
</svg>
