<?xml version="1.0" encoding="utf-8"?>
<!-- Generator: Adobe Illustrator 17.1.0, SVG Export Plug-In . SVG Version: 6.00 Build 0)  -->
<!DOCTYPE svg PUBLIC "-//W3C//DTD SVG 1.1//EN" "http://www.w3.org/Graphics/SVG/1.1/DTD/svg11.dtd">
<svg version="1.1" id="Layer_1" xmlns="http://www.w3.org/2000/svg" xmlns:xlink="http://www.w3.org/1999/xlink" x="0px" y="0px"
	 viewBox="0 0 19 11" style="enable-background:new 0 0 19 11;" xml:space="preserve">
<g>
	<path style="fill:#FFFFFF;" d="M7.96,3.45v4.1H7.37v0.59H6.78v0.59H3.27V8.14H2.68V7.55H2.1v-4.1h0.59V2.86h0.59V2.28h12.14
		l-0.48,1.17 M3.85,7.55H6.2V6.97h0.59V4.03H6.2V3.45H3.85v0.59H3.27v2.93h0.59V7.55z"/>
</g>
<g>
	<path style="fill:#FFFFFF;" d="M12,2.28h3.52v0.59h0.59v0.59h0.59v4.1H16.1v0.59h-0.59v0.59H12V8.14h-0.59V7.55h-0.59v-4.1
		 M12.58,7.55h2.34V6.97h0.59V4.03h-0.59V3.45h-2.34v0.59H12v2.93h0.59V7.55z"/>
</g>
<rect x="0.5" y="0.5" style="fill:none;stroke:#FFFFFF;stroke-miterlimit:10;" width="18" height="10"/>
</svg>
