<?xml version="1.0" encoding="utf-8"?>
<!DOCTYPE svg PUBLIC "-//W3C//DTD SVG 1.1//EN" "http://www.w3.org/Graphics/SVG/1.1/DTD/svg11.dtd">
<svg version="1.1" id="Layer_1" xmlns="http://www.w3.org/2000/svg" xmlns:xlink="http://www.w3.org/1999/xlink" x="0px" y="0px"
	 viewBox="0 0 48.05 8.2" style="enable-background:new 0 0 48.05 8.2;" xml:space="preserve">
<g>
	<path style="fill:#FFFFFF;" d="M2.34,1.17H0V0h5.86v1.17H3.52V8.2H2.34V1.17z"/>
	<path style="fill:#FFFFFF;" d="M7.03,0H8.2v6.45h1.17V3.52h1.17v2.93h1.17V0h1.17v7.03H12.3v0.59h-0.59V8.2h-1.17V7.62H9.38V8.2
		H8.2V7.62H7.62V7.03H7.03V0z"/>
	<path style="fill:#FFFFFF;" d="M15.23,8.2V7.03h1.17V1.17h-1.17V0h3.52v1.17h-1.17v5.86h1.17V8.2H15.23z"/>
	<path style="fill:#FFFFFF;" d="M23.44,1.17h-2.34V0h5.86v1.17h-2.34V8.2h-1.17V1.17z"/>
	<path style="fill:#FFFFFF;" d="M30.47,1.17h-2.34V0h5.86v1.17h-2.34V8.2h-1.17V1.17z"/>
	<path style="fill:#FFFFFF;" d="M41.02,0v1.17h-4.69v2.34h3.52v1.17h-3.52v2.34h4.69V8.2h-5.86V0H41.02z"/>
	<path style="fill:#FFFFFF;" d="M43.95,4.69h-0.59V8.2h-1.17V0h4.69v0.59h0.59v0.59h0.59v2.34h-0.59V4.1h-0.59v0.59H45.7v0.59h0.59
		v0.59h0.59v0.59h0.59v0.59h0.59V8.2h-1.17V7.62h-0.59V7.03H45.7V6.45h-0.59V5.86h-0.59V5.27h-0.59V4.69z M43.36,1.17v2.34h2.93
		V2.93h0.59V1.76h-0.59V1.17H43.36z"/>
</g>
</svg>
